<?xml version="1.0" encoding="UTF-8"?><svg id="_圖層_2" xmlns="http://www.w3.org/2000/svg" viewBox="0 0 32 15"><defs><style>.cls-1{fill:#61bf1d;}.cls-1,.cls-2,.cls-3{stroke-width:0px;}.cls-2{fill:#216eca;}.cls-3{fill:#fff;}</style></defs><g id="_圖層_1-2"><path class="cls-1" d="m1.23,0C.55,0,0,.55,0,1.23v12.54c0,.68.55,1.23,1.23,1.23h14.77V0H1.23Z"/><path class="cls-2" d="m30.77,0h-14.77v15h14.77c.68,0,1.23-.55,1.23-1.23V1.23c0-.68-.55-1.23-1.23-1.23Z"/><path class="cls-3" d="m27.63,6.69c-.11.65-.56,1.2-1.02,1.21.44.03.7.56.59,1.21l-.31,1.75c-.15.81-1,1.48-1.92,1.48h-5.53c-.26,0-.42-.25-.37-.56l1.37-7.78c.05-.3.29-.55.55-.55h5.54c.92,0,1.54.67,1.4,1.48l-.31,1.75Zm-3.36-1.94h-.88l-1.1,6.3h.88c.37,0,.7-.19.74-.43l.31-1.72c.04-.24-.22-.43-.59-.43h-.43l.2-1.13h.43c.37,0,.7-.19.75-.43l.29-1.72c.05-.25-.22-.44-.59-.44Z"/><path class="cls-3" d="m3.28,4.75l1.51-1.51.21-.21c.14-.14.15-.39,0-.53s-.38-.15-.53,0l-1.51,1.51-.21.21c-.14.14-.15.39,0,.53s.38.15.53,0h0Z"/><path class="cls-3" d="m12.77,4.22c-.5-.5-1.01-1.01-1.51-1.51-.07-.07-.14-.14-.21-.21-.14-.14-.39-.15-.53,0s-.15.38,0,.53c.5.5,1.01,1.01,1.51,1.51.07.07.14.14.21.21.14.14.39.15.53,0s.15-.38,0-.53h0Z"/><path class="cls-3" d="m11.69,7.93c-.02,1.64-1.04,3.15-2.6,3.7s-3.33.07-4.39-1.21-1.17-3.11-.33-4.51,2.5-2.16,4.11-1.85c1.86.36,3.18,1.99,3.21,3.87,0,.48.76.48.75,0-.03-1.95-1.22-3.69-3.04-4.39s-4.01-.12-5.26,1.41-1.42,3.69-.41,5.38,2.98,2.55,4.9,2.21c2.21-.4,3.79-2.39,3.82-4.6,0-.48-.74-.48-.75,0Z"/><path class="cls-3" d="m7.24,4.48v3.24c0,.13-.02.28.05.4.06.11.18.2.27.29l.54.54c.32.32.65.65.97.97.34.34.87-.19.53-.53-.57-.57-1.15-1.15-1.72-1.72l.11.27v-3.45c0-.48-.75-.48-.75,0h0Z"/></g></svg>