<?xml version="1.0" encoding="UTF-8"?><svg id="_圖層_2" xmlns="http://www.w3.org/2000/svg" viewBox="0 0 17 15"><defs><style>.cls-1{fill:#fff;}.cls-1,.cls-2{stroke-width:0px;}.cls-2{fill:#ee5109;}</style></defs><g id="_圖層_1-2"><rect class="cls-2" width="17" height="15" rx="1.68" ry="1.68"/><path class="cls-1" d="m12.42,7.68c-.14.79-.97,1.43-1.86,1.43h-2.83l-.47,2.67c-.05.3-.3.54-.53.54h-2.07c-.25,0-.4-.24-.36-.54l1.33-7.51c.05-.29.28-.53.53-.53h5.35c.89,0,1.49.64,1.35,1.43l-.44,2.5Zm-3.11-2.69h-.85l-.53,3.03h.85c.36,0,.67-.19.72-.41l.38-2.19c.05-.24-.21-.43-.57-.43Z"/></g></svg>